HIERARCHY
ROOT Pelvis
{
	OFFSET 0.000000 0.000000 0.000000
	CHANNELS 6 Xposition Yposition Zposition Xrotation Yrotation Zrotation
	JOINT LeftUpLeg_virtual
	{
		OFFSET 0.000000 0.000000 0.000000
		CHANNELS 3 Xrotation Yrotation Zrotation
		JOINT LeftUpLeg
		{
			OFFSET 18.735201 -5.666702 -4.541200
			CHANNELS 3 Xrotation Yrotation Zrotation
			JOINT LeftLeg
			{
				OFFSET -0.021200 -31.938179 0.493100
				CHANNELS 3 Xrotation Yrotation Zrotation
				JOINT LeftFoot
				{
					OFFSET 0.021200 -31.938179 -4.336299
					CHANNELS 3 Xrotation Yrotation Zrotation
					JOINT LeftToeBase
					{
						OFFSET 0.943001 -26.722000 15.023500
						CHANNELS 3 Xrotation Yrotation Zrotation
						End Site
						{
							OFFSET 0 0 0
						}
					}
				}
			}
		}
	}
	JOINT RightUpLeg_virtual
	{
		OFFSET 0.000000 0.000000 0.000000
		CHANNELS 3 Xrotation Yrotation Zrotation
		JOINT RightUpLeg
		{
			OFFSET -18.735201 -5.666702 -4.541200
			CHANNELS 3 Xrotation Yrotation Zrotation
			JOINT RightLeg
			{
				OFFSET 0.018946 -31.938133 0.493100
				CHANNELS 3 Xrotation Yrotation Zrotation
				JOINT RightFoot
				{
					OFFSET -0.018946 -31.938126 -4.336299
					CHANNELS 3 Xrotation Yrotation Zrotation
					JOINT RightToeBase
					{
						OFFSET -0.943001 -26.722004 15.023500
						CHANNELS 3 Xrotation Yrotation Zrotation
						End Site
						{
							OFFSET 0 0 0
						}
					}
				}
			}
		}
	}
	JOINT Hips_virtual
	{
		OFFSET 0.000000 0.000000 0.000000
		CHANNELS 3 Xrotation Yrotation Zrotation
		JOINT Hips
		{
			OFFSET -0.000000 -0.000000 -0.000000
			CHANNELS 3 Xrotation Yrotation Zrotation
			JOINT Spine
			{
				OFFSET 0.000000 10.199997 -0.299500
				CHANNELS 3 Xrotation Yrotation Zrotation
				JOINT Spine1
				{
					OFFSET 0.000000 11.900002 -1.516600
					CHANNELS 3 Xrotation Yrotation Zrotation
					JOINT Spine2
					{
						OFFSET 0.000000 13.600006 -2.842500
						CHANNELS 3 Xrotation Yrotation Zrotation
						JOINT Neck_virtual
						{
							OFFSET 0.000000 0.000000 0.000000
							CHANNELS 3 Xrotation Yrotation Zrotation
							JOINT Neck
							{
								OFFSET 0.000000 9.624100 -2.890100
								CHANNELS 3 Xrotation Yrotation Zrotation
								JOINT Head
								{
									OFFSET 0.000000 14.068802 -1.351900
									CHANNELS 3 Xrotation Yrotation Zrotation
									End Site
									{
										OFFSET 0 0 0
									}
								}
							}
						}
						JOINT LeftShoulder_virtual
						{
							OFFSET 0.000000 0.000000 0.000000
							CHANNELS 3 Xrotation Yrotation Zrotation
							JOINT LeftShoulder
							{
								OFFSET 15.263000 10.923401 -0.547700
								CHANNELS 3 Xrotation Yrotation Zrotation
								JOINT LeftArm
								{
									OFFSET 25.438599 -2.830597 -13.032500
									CHANNELS 3 Xrotation Yrotation Zrotation
									JOINT LeftForeArm
									{
										OFFSET 29.960503 0.000000 0.000000
										CHANNELS 3 Xrotation Yrotation Zrotation
										JOINT LeftHand
										{
											OFFSET 27.849251 0.000000 0.000000
											CHANNELS 3 Xrotation Yrotation Zrotation
											End Site
											{
												OFFSET 0 0 0
											}
										}
									}
								}
							}
						}
						JOINT RightShoulder_virtual
						{
							OFFSET 0.000000 0.000000 0.000000
							CHANNELS 3 Xrotation Yrotation Zrotation
							JOINT RightShoulder
							{
								OFFSET -15.263000 10.923401 -0.547700
								CHANNELS 3 Xrotation Yrotation Zrotation
								JOINT RightArm
								{
									OFFSET -25.438599 -2.830597 -13.032500
									CHANNELS 3 Xrotation Yrotation Zrotation
									JOINT RightForeArm
									{
										OFFSET -29.960503 0.000000 0.000000
										CHANNELS 3 Xrotation Yrotation Zrotation
										JOINT RightHand
										{
											OFFSET -27.849251 0.000000 0.000000
											CHANNELS 3 Xrotation Yrotation Zrotation
											End Site
											{
												OFFSET 0 0 0
											}
										}
									}
								}
							}
						}
					}
				}
			}
		}
	}
}
MOTION
Frames: 6
Frame Time: 0.03333333
16.231400 82.142807 63.588692 0.000000 0.000000 0.000000 29.505731 54.505241 -23.564776 -49.173278 26.809780 26.675078 40.892828 -24.403378 -2.789790 -16.053595 -19.646054 -25.820034 0.000000 0.000000 0.000000 -40.413881 83.194238 33.632835 -50.670394 19.104908 -12.770025 26.879122 -5.406854 7.199265 -22.620323 -12.939785 18.006703 0.000000 0.000000 0.000000 44.082225 62.340789 -29.251880 25.715495 67.506339 -31.807686 16.020965 11.137067 -15.676505 11.665921 7.516289 -11.472122 0.000000 0.000000 0.000000 6.344641 13.084286 -9.164630 -1.760335 2.766917 -0.128655 0.000000 0.000000 0.000000 1.889255 14.670249 -9.624614 -1.710516 5.021801 -5.950018 -29.258966 34.394254 -53.462524 -20.015016 -27.131443 -10.012696 0.000000 0.000000 0.000000 4.851609 12.477985 -9.727560 0.793023 21.566467 -16.526123 59.978466 53.739829 -8.907731 27.821114 63.902990 0.705369 0.000000 0.000000 0.000000 
16.109205 81.623314 62.574677 0.000000 0.000000 0.000000 28.364077 55.181774 -22.025405 -48.861818 26.560333 27.204773 40.490246 -23.758357 -2.931320 -16.072104 -19.059798 -25.489952 0.000000 0.000000 0.000000 -35.368219 82.682459 28.144624 -50.298702 19.302130 -13.058117 26.841341 -4.768080 7.086610 -22.598962 -12.346173 18.210789 0.000000 0.000000 0.000000 44.135094 62.348494 -29.203211 20.612790 66.120500 -28.113187 15.485523 10.857428 -15.477852 11.456141 7.322553 -11.390704 0.000000 0.000000 0.000000 6.169379 12.956766 -9.112456 -1.867859 2.756528 -0.135135 0.000000 0.000000 0.000000 1.890144 14.398331 -9.688888 -1.815231 4.704136 -6.544861 -27.901492 33.175950 -53.782419 -19.167189 -28.146696 -9.731951 0.000000 0.000000 0.000000 4.868851 12.350277 -9.683302 0.721334 21.274967 -16.505950 58.876436 53.837235 -6.853352 27.306663 64.574029 1.200870 0.000000 0.000000 0.000000 
15.984067 81.201530 61.771954 0.000000 0.000000 0.000000 27.544722 55.856635 -20.842001 -48.561501 26.402154 27.673375 40.228872 -23.012130 -3.065480 -15.961259 -18.403349 -25.119822 0.000000 0.000000 0.000000 -31.020417 82.187844 23.460197 -49.845887 19.469883 -13.343265 27.039988 -3.985876 6.976391 -22.424281 -11.613238 18.497453 0.000000 0.000000 0.000000 43.755776 62.158287 -28.777537 15.978174 64.618289 -25.146352 14.949742 10.537431 -15.261979 11.237739 7.104980 -11.294789 0.000000 0.000000 0.000000 5.962092 12.796775 -9.034604 -1.977575 2.757305 -0.138449 0.000000 0.000000 0.000000 1.877331 14.075398 -9.755989 -1.917248 4.378665 -7.175500 -26.764393 31.724296 -53.820648 -18.266496 -29.265626 -9.376220 0.000000 0.000000 0.000000 4.830867 12.190659 -9.628362 0.645763 20.956024 -16.517923 57.123771 54.056887 -4.258354 26.401721 65.501241 1.952405 0.000000 0.000000 0.000000 
15.826225 80.912445 61.188694 0.000000 0.000000 0.000000 27.089089 56.662973 -20.055870 -48.249911 26.364790 28.089850 40.143959 -22.172326 -3.183890 -15.706776 -17.682182 -24.706836 0.000000 0.000000 0.000000 -26.936738 81.733185 19.125267 -49.261998 19.637041 -13.656693 27.482110 -3.088412 6.855022 -22.095682 -10.756211 18.836391 0.000000 0.000000 0.000000 43.046526 61.814230 -28.079579 12.076139 63.140509 -23.078381 14.420935 10.163500 -15.035866 11.014370 6.854973 -11.188235 0.000000 0.000000 0.000000 5.729260 12.591992 -8.938599 -2.087415 2.761517 -0.142558 0.000000 0.000000 0.000000 1.853374 13.695042 -9.823262 -2.018304 4.026200 -7.828304 -25.819015 30.035108 -53.569119 -17.305978 -30.478039 -8.933159 0.000000 0.000000 0.000000 4.735178 11.989466 -9.557578 0.551900 20.578836 -16.544859 54.625459 54.354471 -1.013976 24.991561 66.616543 3.090134 0.000000 0.000000 0.000000 
15.617964 80.770760 60.778969 0.000000 0.000000 0.000000 26.966309 57.578624 -19.628437 -47.893461 26.443735 28.443809 40.248399 -21.254056 -3.277478 -15.311611 -16.907768 -24.246352 0.000000 0.000000 0.000000 -22.913581 81.298164 14.920611 -48.536455 19.808192 -14.008737 28.120591 -2.115084 6.715005 -21.648397 -9.806377 19.199090 0.000000 0.000000 0.000000 42.080970 61.329792 -27.172805 8.998880 61.752615 -21.856030 13.901638 9.719849 -14.803866 10.787527 6.563003 -11.073203 0.000000 0.000000 0.000000 5.478338 12.329062 -8.829807 -2.194632 2.760454 -0.150347 0.000000 0.000000 0.000000 1.819987 13.251479 -9.887047 -2.121547 3.627648 -8.486042 -25.030126 28.115570 -53.021765 -16.278614 -31.753474 -8.391119 0.000000 0.000000 0.000000 4.586314 11.735133 -9.470349 0.435626 20.106467 -16.591110 51.365283 54.636585 2.899964 22.999815 67.836961 4.704365 0.000000 0.000000 0.000000 
15.351521 80.777031 60.467232 0.000000 0.000000 0.000000 27.086997 58.475804 -19.459199 -47.454874 26.607342 28.712114 40.535342 -20.274815 -3.338004 -14.791406 -16.094122 -23.732213 0.000000 0.000000 0.000000 -18.955510 80.840493 10.840137 -47.689108 19.970739 -14.391343 28.869205 -1.112927 6.554558 -21.143059 -8.807749 19.558083 0.000000 0.000000 0.000000 40.905060 60.697589 -26.087561 6.727669 60.446266 -21.308377 13.392180 9.190863 -14.567197 10.557564 6.220184 -10.949727 0.000000 0.000000 0.000000 5.218517 11.994854 -8.711167 -2.295317 2.745223 -0.163339 0.000000 0.000000 0.000000 1.778490 12.740540 -9.941752 -2.230065 3.165943 -9.124638 -24.354175 25.988083 -52.177943 -15.177862 -33.038117 -7.741169 0.000000 0.000000 0.000000 4.395707 11.415766 -9.370682 0.303104 19.500841 -16.680758 47.416273 54.779931 7.396758 20.396236 69.074721 6.833855 0.000000 0.000000 0.000000 
